<svg width="15" height="16" viewBox="0 0 15 16" fill="none" xmlns="http://www.w3.org/2000/svg">
<path fill-rule="evenodd" clip-rule="evenodd" d="M5.50252 3.20491C5.42697 3.18464 5.34816 3.17946 5.27059 3.18964C5.19303 3.19983 5.11823 3.2252 5.05047 3.26429C4.98271 3.30339 4.9233 3.35545 4.87567 3.41749C4.82803 3.47954 4.79307 3.55036 4.7728 3.62592C4.75253 3.70149 4.74734 3.7803 4.75752 3.85786C4.76771 3.93542 4.79308 4.01021 4.83217 4.07797C4.87127 4.14573 4.92333 4.20514 4.98538 4.25278C5.04742 4.30041 5.11824 4.33537 5.19381 4.35565L10.9434 5.89523C11.02 5.91897 11.1006 5.92702 11.1803 5.91887C11.2601 5.91072 11.3373 5.88655 11.4075 5.84781C11.4776 5.80907 11.5392 5.75657 11.5886 5.69344C11.6379 5.63031 11.6741 5.55786 11.6949 5.48043C11.7155 5.403 11.7203 5.32219 11.7091 5.24284C11.6977 5.1635 11.6705 5.08724 11.6291 5.01868C11.5876 4.9501 11.5326 4.8906 11.4676 4.84376C11.4027 4.79693 11.3288 4.76371 11.2506 4.74609L5.50173 3.20651L5.50252 3.20491ZM4.8351 5.69684C4.68447 5.66111 4.52586 5.68549 4.39291 5.76478C4.25995 5.84407 4.16312 5.97205 4.12296 6.12155C4.08279 6.27105 4.10245 6.43032 4.17777 6.56557C4.25309 6.70081 4.37814 6.80139 4.52639 6.84596L10.2761 8.38714C10.4286 8.42798 10.5912 8.40652 10.728 8.32749C10.8648 8.24846 10.9645 8.11833 11.0054 7.96573C11.0461 7.81314 11.0248 7.65058 10.9456 7.5138C10.8666 7.37703 10.7365 7.27725 10.5839 7.23642L4.8351 5.69684ZM3.43836 8.60856C3.47928 8.45622 3.57899 8.32637 3.71559 8.24749C3.85219 8.16863 4.01451 8.14722 4.16688 8.18794L7.99998 9.21487C8.0755 9.23509 8.14627 9.27002 8.20829 9.31755C8.27031 9.36508 8.32236 9.42446 8.36145 9.49211C8.40055 9.55988 8.42593 9.63457 8.43614 9.7121C8.44636 9.7895 8.44121 9.86826 8.42099 9.94381C8.40077 10.0192 8.36588 10.0901 8.31831 10.1521C8.27073 10.2142 8.21141 10.2661 8.14373 10.3053C8.07604 10.3444 8.00131 10.3697 7.92381 10.38C7.84632 10.3902 7.76758 10.385 7.69206 10.3648L3.85896 9.33792C3.78345 9.31768 3.71267 9.28274 3.65067 9.23509C3.58866 9.18745 3.53664 9.12808 3.49758 9.06036C3.45852 8.99262 3.43317 8.91786 3.42301 8.84035C3.41285 8.76282 3.41808 8.68406 3.43836 8.60856Z" fill="#FCFCFC"/>
<path fill-rule="evenodd" clip-rule="evenodd" d="M9.28262 15.9258L1.61716 13.8727C1.05815 13.7228 0.581591 13.3571 0.292263 12.8559C0.00294688 12.3545 -0.0754188 11.7589 0.0743869 11.1999L2.64169 1.61715C2.79159 1.05815 3.1574 0.581584 3.65864 0.292268C4.15988 0.00295235 4.75552 -0.0754256 5.31455 0.0743924L12.9808 2.12744C13.5398 2.27734 14.0163 2.64314 14.3056 3.14439C14.595 3.64563 14.6733 4.24127 14.5235 4.80029L11.9554 14.3822C11.8055 14.9413 11.4398 15.4178 10.9384 15.7072C10.4372 15.9964 9.84159 16.0757 9.28262 15.9258ZM1.22353 11.5078C1.1898 11.6337 1.1812 11.7649 1.19821 11.8941C1.21521 12.0232 1.25749 12.1478 1.32264 12.2606C1.38779 12.3734 1.47451 12.4723 1.57789 12.5517C1.68125 12.6309 1.79922 12.6891 1.92506 12.7228L9.59124 14.7766C9.84517 14.8445 10.1157 14.809 10.3434 14.6775C10.5711 14.5461 10.7372 14.3297 10.8055 14.0759L13.3736 4.49237C13.4073 4.36653 13.4159 4.23527 13.3989 4.10611C13.3819 3.97694 13.3397 3.85238 13.2745 3.73956C13.2093 3.62673 13.1226 3.52785 13.0192 3.44854C12.9159 3.36924 12.7978 3.31107 12.672 3.27737L5.00504 1.22273C4.751 1.15487 4.4804 1.19063 4.25273 1.32218C4.02505 1.45373 3.85891 1.6703 3.79083 1.92428L1.22353 11.5078Z" fill="#FCFCFC"/>
</svg>
